bw_sq_02
version=1
nRows=16
nColumns=46
inDegrees=yes
endheader
time	ground_force3_vx	ground_force3_vy	ground_force3_vz	ground_force3_px	ground_force3_py	ground_force3_pz	ground_torque3_x	ground_torque3_y	ground_torque3_z	ground_force5_vx	ground_force5_vy	ground_force5_vz	ground_force5_px	ground_force5_py	ground_force5_pz	ground_torque5_x	ground_torque5_y	ground_torque5_z	ground_force4_vx	ground_force4_vy	ground_force4_vz	ground_force4_px	ground_force4_py	ground_force4_pz	ground_torque4_x	ground_torque4_y	ground_torque4_z	ground_force1_vx	ground_force1_vy	ground_force1_vz	ground_force1_px	ground_force1_py	ground_force1_pz	ground_torque1_x	ground_torque1_y	ground_torque1_z	ground_force2_vx	ground_force2_vy	ground_force2_vz	ground_force2_px	ground_force2_py	ground_force2_pz	ground_torque2_x	ground_torque2_y	ground_torque2_z
0.837000	-0.000000	-0.000000	0.000000	0.200000	0.000000	-0.300000	0.000000	0.000000	-0.000000	-6.373898	360.994110	32.874771	0.244636	0.000000	-1.316074	0.000028	-1.149129	0.000008	-2.380183	246.800751	-32.927757	0.227047	0.000000	-1.046018	0.000008	1.765546	0.000006	-0.000000	-0.000000	0.000000	0.200000	0.000000	0.904000	0.000000	0.000000	-0.000000	-0.000000	-0.000000	0.000000	0.400000	0.000000	0.302000	0.000000	0.000000	-0.000000	
0.838000	-0.000000	-0.000000	0.000000	0.200000	0.000000	-0.300000	0.000000	0.000000	-0.000000	-6.533073	362.265991	32.231953	0.244068	0.000000	-1.316914	-0.000004	-1.351921	0.000005	-3.351071	250.643845	-33.250862	0.226579	0.000000	-1.043179	0.000013	1.849329	0.000001	-0.000000	-0.000000	0.000000	0.200000	0.000000	0.904000	0.000000	0.000000	-0.000000	-0.000000	-0.000000	0.000000	0.400000	0.000000	0.302000	0.000000	0.000000	-0.000000	
0.839000	-0.000000	-0.000000	0.000000	0.200000	0.000000	-0.300000	0.000000	0.000000	-0.000000	-5.568344	362.266968	32.714573	0.244560	0.000000	-1.315220	0.000010	-1.031855	0.000002	-2.700723	248.723801	-32.445129	0.226291	0.000000	-1.044758	-0.000009	1.880720	0.000003	-0.000000	-0.000000	0.000000	0.200000	0.000000	0.904000	0.000000	0.000000	-0.000000	-0.000000	-0.000000	0.000000	0.400000	0.000000	0.302000	0.000000	0.000000	-0.000000	
0.840000	-0.000000	-0.000000	0.000000	0.200000	0.000000	-0.300000	0.000000	0.000000	-0.000000	-7.016711	362.904114	32.232292	0.244113	0.000000	-1.316479	0.000054	-1.311629	-0.000001	-2.219140	249.041687	-31.800953	0.226478	0.000000	-1.044689	0.000026	1.639722	0.000006	-0.000000	-0.000000	0.000000	0.200000	0.000000	0.904000	0.000000	0.000000	-0.000000	-0.000000	-0.000000	0.000000	0.400000	0.000000	0.302000	0.000000	0.000000	-0.000000	
0.841000	-0.000000	-0.000000	0.000000	0.200000	0.000000	-0.300000	0.000000	0.000000	-0.000000	-6.211666	362.585846	33.357048	0.244343	0.000000	-1.315505	0.000003	-1.275595	0.000006	-2.216051	247.441864	-31.800953	0.226463	0.000000	-1.045965	-0.000009	1.771079	0.000004	-0.000000	-0.000000	0.000000	0.200000	0.000000	0.904000	0.000000	0.000000	-0.000000	-0.000000	-0.000000	0.000000	0.400000	0.000000	0.302000	0.000000	0.000000	-0.000000	
0.842000	-0.000000	-0.000000	0.000000	0.200000	0.000000	-0.300000	0.000000	0.000000	-0.000000	-6.854480	364.181641	33.838989	0.244351	0.000000	-1.316597	0.000009	-1.558688	0.000003	-2.053464	248.081329	-31.962507	0.226781	0.000000	-1.043934	0.000017	1.771093	0.000004	-0.000000	-0.000000	0.000000	0.200000	0.000000	0.904000	0.000000	0.000000	-0.000000	-0.000000	-0.000000	0.000000	0.400000	0.000000	0.302000	0.000000	0.000000	-0.000000	
0.843000	-0.000000	-0.000000	0.000000	0.200000	0.000000	-0.300000	0.000000	0.000000	-0.000000	-6.049945	363.858429	33.196175	0.243622	0.000000	-1.315850	0.000038	-1.327881	0.000004	-1.889333	247.763779	-31.802994	0.226121	0.000000	-1.044962	0.000004	1.763782	0.000003	-0.000000	-0.000000	0.000000	0.200000	0.000000	0.904000	0.000000	0.000000	-0.000000	-0.000000	-0.000000	0.000000	0.400000	0.000000	0.302000	0.000000	0.000000	-0.000000	
0.844000	-0.000000	-0.000000	0.000000	0.200000	0.000000	-0.300000	0.000000	0.000000	-0.000000	-5.728539	366.091309	32.875107	0.243472	0.000000	-1.316211	0.000018	-1.143598	0.000003	-1.729835	246.799393	-31.963528	0.226921	0.000000	-1.045277	0.000016	1.693637	0.000003	-0.000000	-0.000000	0.000000	0.200000	0.000000	0.904000	0.000000	0.000000	-0.000000	-0.000000	-0.000000	0.000000	0.400000	0.000000	0.302000	0.000000	0.000000	-0.000000	
0.845000	-0.000000	-0.000000	0.000000	0.200000	0.000000	-0.300000	0.000000	0.000000	-0.000000	-5.889241	364.817444	33.196854	0.244003	0.000000	-1.316651	0.000049	-1.196318	0.000008	-2.051920	245.515121	-31.318333	0.227006	0.000000	-1.045400	-0.000002	1.828622	0.000006	-0.000000	-0.000000	0.000000	0.200000	0.000000	0.904000	0.000000	0.000000	-0.000000	-0.000000	-0.000000	0.000000	0.400000	0.000000	0.302000	0.000000	0.000000	-0.000000	
0.846000	-0.000000	-0.000000	0.000000	0.200000	0.000000	-0.300000	0.000000	0.000000	-0.000000	-6.050454	363.858429	33.195839	0.243814	0.000000	-1.315861	0.000010	-1.308449	0.000004	-1.889333	245.200943	-31.320372	0.226910	0.000000	-1.045875	0.000014	1.758483	0.000002	-0.000000	-0.000000	0.000000	0.200000	0.000000	0.904000	0.000000	0.000000	-0.000000	-0.000000	-0.000000	0.000000	0.400000	0.000000	0.302000	0.000000	0.000000	-0.000000	
0.847000	-0.000000	-0.000000	0.000000	0.200000	0.000000	-0.300000	0.000000	0.000000	-0.000000	-5.728539	367.044006	33.839668	0.243079	0.000000	-1.317620	0.000006	-1.125472	0.000004	-1.892422	246.483887	-30.998281	0.226080	0.000000	-1.042851	0.000006	1.589473	0.000005	-0.000000	-0.000000	0.000000	0.200000	0.000000	0.904000	0.000000	0.000000	-0.000000	-0.000000	-0.000000	0.000000	0.400000	0.000000	0.302000	0.000000	0.000000	-0.000000	
0.848000	-0.000000	-0.000000	0.000000	0.200000	0.000000	-0.300000	0.000000	0.000000	-0.000000	-5.084196	364.175354	34.160061	0.243599	0.000000	-1.315275	-0.000002	-1.229132	0.000004	-1.404660	244.564865	-31.320372	0.226596	0.000000	-1.044078	0.000044	1.644495	0.000005	-0.000000	-0.000000	0.000000	0.200000	0.000000	0.904000	0.000000	0.000000	-0.000000	-0.000000	-0.000000	0.000000	0.400000	0.000000	0.302000	0.000000	0.000000	-0.000000	
0.849000	-0.000000	-0.000000	0.000000	0.200000	0.000000	-0.300000	0.000000	0.000000	-0.000000	-5.084196	366.088684	33.838989	0.243547	0.000000	-1.315657	0.000001	-1.172873	0.000003	-1.565703	246.169708	-30.514641	0.224875	0.000000	-1.044393	0.000015	1.645771	0.000003	-0.000000	-0.000000	0.000000	0.200000	0.000000	0.904000	0.000000	0.000000	-0.000000	-0.000000	-0.000000	0.000000	0.400000	0.000000	0.302000	0.000000	0.000000	-0.000000	
0.850000	-0.000000	-0.000000	0.000000	0.200000	0.000000	-0.300000	0.000000	0.000000	-0.000000	-5.566815	366.730438	34.160061	0.243408	0.000000	-1.315981	0.000032	-1.341777	0.000006	-0.915355	246.484222	-30.995224	0.225880	0.000000	-1.045063	-0.000004	1.823399	0.000002	-0.000000	-0.000000	0.000000	0.200000	0.000000	0.904000	0.000000	0.000000	-0.000000	-0.000000	-0.000000	0.000000	0.400000	0.000000	0.302000	0.000000	0.000000	-0.000000	
0.851000	-0.000000	-0.000000	0.000000	0.200000	0.000000	-0.300000	0.000000	0.000000	-0.000000	-5.244390	366.728455	34.481129	0.243441	0.000000	-1.315120	0.000062	-1.403774	0.000004	-1.725201	246.162292	-30.996244	0.225344	0.000000	-1.045581	0.000015	1.851780	0.000002	-0.000000	-0.000000	0.000000	0.200000	0.000000	0.904000	0.000000	0.000000	-0.000000	-0.000000	-0.000000	0.000000	0.400000	0.000000	0.302000	0.000000	0.000000	-0.000000	
0.852000	-0.000000	-0.000000	0.000000	0.200000	0.000000	-0.300000	0.000000	0.000000	-0.000000	-4.762280	368.958344	33.838650	0.243320	0.000000	-1.316342	0.000016	-1.139969	0.000007	-2.053464	246.166351	-30.512602	0.225587	0.000000	-1.044901	-0.000001	1.717681	0.000002	-0.000000	-0.000000	0.000000	0.200000	0.000000	0.904000	0.000000	0.000000	-0.000000	-0.000000	-0.000000	0.000000	0.400000	0.000000	0.302000	0.000000	0.000000	-0.000000	
